PathFileType	4	(X/Y/Z)	5_coords_data.trc
DataRate	CameraRate	NumFrames	NumMarkers	Units	OrigDataRate	OrigDataStartFrame	OrigNumFrames
30.0	30.0	7	21	m	30.0	11	70
Frame#	Time	THUMB_TIP	THUMB_IP	THUMB_MCP	THUMB_CMC	INDEX_TIP	INDEX_DIP	INDEX_PIP	INDEX_MCP	MIDDLE_TIP	MIDDLE_DIP	MIDDLE_PIP	MIDDLE_MCP	RING_TIP	RING_DIP	RING_PIP	RING_MCP	PINKY_TIP	PINKY_DIP	PINKY_PIP	PINKY_MCP	WRIST
X1	Y1	Z1	X2	Y2	Z2	X3	Y3	Z3	X4	Y4	Z4	X5	Y5	Z5	X6	Y6	Z6	X7	Y7	Z7	X8	Y8	Z8	X9	Y9	Z9	X10	Y10	Z10	X11	Y11	Z11	X12	Y12	Z12	X13	Y13	Z13	X14	Y14	Z14	X15	Y15	Z15	X16	Y16	Z16	X17	Y17	Z17	X18	Y18	Z18	X19	Y19	Z19	X20	Y20	Z20	X21	Y21	Z21
10	0.3333333333333333	-0.013058500289916992	-0.05724539947509766	0.9966019897460937	-0.007726210117340088	-0.07435109710693359	1.0127999877929688	-0.01908489990234375	-0.08202449798583984	1.04018994140625	-0.03442309951782226	-0.05878070068359375	1.0548699951171876	-0.03877809906005859	-0.09688919830322265	0.9312479858398437	-0.04611479949951172	-0.09483429718017578	0.9523610229492188	-0.05484500122070313	-0.09144270324707031	0.9744409790039062	-0.06371239852905274	-0.0845999984741211	1.009780029296875	-0.020067399978637695	-0.06423210144042969	1.03243994140625	-0.020609199523925783	-0.06808300018310547	1.0143300170898437	-0.029451400756835937	-0.07357579803466797	0.9897069702148438	-0.06833309936523438	-0.0659136962890625	1.0031400146484375	-0.010605500221252442	-0.053418800354003905	1.0314100341796875	-0.01723590087890625	-0.05436640167236328	1.0114500122070313	-0.02641230010986328	-0.05610580062866211	0.9868170166015625	-0.06273260116577148	-0.0475260009765625	1.0023400268554687	-0.04075080108642578	-0.04412179946899414	0.9397449951171875	-0.04192210006713867	-0.041433101654052736	0.9603189697265625	-0.04365499877929688	-0.039538200378417966	0.9793369750976563	-0.04450699996948242	-0.03535089874267578	1.0066900024414063	-0.05357789993286133	-0.03498659896850586	1.073030029296875
11	0.36666666666666664	-0.013436200141906739	-0.05709349822998047	0.99668701171875	-0.007908720016479492	-0.07423770141601563	1.0128599853515625	-0.019478500366210936	-0.0819176025390625	1.0404599609375	-0.03450519943237305	-0.058911201477050784	1.0546800537109375	-0.03914690017700195	-0.09670330047607421	0.9312960205078125	-0.04647409820556641	-0.09463680267333985	0.9524929809570313	-0.05517530059814453	-0.091256103515625	0.9745380249023438	-0.06403549957275391	-0.08442440032958984	1.0099199829101562	-0.021681400299072267	-0.06441880035400391	1.0319599609375	-0.02079669952392578	-0.06795210266113282	1.0144600219726563	-0.029720699310302735	-0.0733927001953125	0.9898150024414063	-0.06856490325927735	-0.06570469665527344	1.0032999877929687	-0.011258700370788573	-0.053106498718261716	1.0313299560546876	-0.017677900314331054	-0.05426480102539062	1.0117999877929686	-0.026639299392700197	-0.05587760162353515	0.9869190063476563	-0.06294070053100585	-0.04726350021362305	1.0025800170898438	-0.04110329818725586	-0.04390599822998047	0.9398410034179687	-0.042254501342773435	-0.04124530029296875	0.960406005859375	-0.04393080139160156	-0.0393760986328125	0.9793980102539063	-0.04503219985961914	-0.03516579818725586	1.006969970703125	-0.053852500915527346	-0.03482040023803711	1.0730899658203126
12	0.4	-0.013607099533081054	-0.05704159927368164	0.9967559814453125	-0.008146730422973633	-0.07423410034179688	1.0128300170898437	-0.019632999420166015	-0.081785400390625	1.0406099853515625	-0.03464759826660156	-0.05872060012817383	1.0548800048828124	-0.03912239837646484	-0.09661009979248047	0.931448974609375	-0.046551101684570315	-0.09454419708251953	0.9526309814453126	-0.05528450012207031	-0.09113089752197266	0.9746420288085937	-0.06419619750976563	-0.08429470062255859	1.00997998046875	-0.020373899459838866	-0.06399819946289062	1.03277001953125	-0.020829500198364256	-0.06792759704589844	1.0143800048828124	-0.029886600494384765	-0.07336630249023438	0.9899169921875	-0.06873419952392579	-0.06554489898681641	1.0035499877929688	-0.011418999671936035	-0.05299079895019531	1.03152001953125	-0.017520200729370116	-0.0541599006652832	1.0116599731445313	-0.026871000289916992	-0.055817298889160157	0.9871300048828126	-0.06308050155639648	-0.04720790100097656	1.0026300048828125	-0.04126020050048828	-0.04379690170288086	0.94	-0.04237409973144531	-0.04111349868774414	0.9604320068359375	-0.044101600646972654	-0.03926020050048828	0.9794539794921875	-0.04489229965209961	-0.035054798126220706	1.00697998046875	-0.05394150161743164	-0.03470429992675781	1.0733499755859375
13	0.43333333333333335	-0.01371090030670166	-0.05702280044555664	0.9969199829101563	-0.008311200141906738	-0.07426309967041016	1.0133900146484376	-0.019710500717163085	-0.08176750183105469	1.0406400146484376	-0.0347593994140625	-0.058606998443603515	1.05502001953125	-0.03905690002441406	-0.09657990264892578	0.9316719970703125	-0.046534801483154295	-0.09449919891357422	0.9528090209960938	-0.05530839920043945	-0.09112400054931641	0.9747349853515626	-0.0642344970703125	-0.08419560241699219	1.0101300048828126	-0.020290500640869142	-0.06377690124511719	1.0332099609375	-0.020884099960327147	-0.06798139953613282	1.01425	-0.029909000396728516	-0.07335230255126954	0.9900770263671875	-0.06875060272216797	-0.06546009826660157	1.003739990234375	-0.010856699943542481	-0.05320479965209961	1.03097998046875	-0.017683099746704102	-0.054112899780273435	1.0120399780273437	-0.026894800186157225	-0.05585169982910156	0.9871389770507812	-0.06312530136108399	-0.047110298156738284	1.0027899780273437	-0.041182701110839846	-0.04377489852905273	0.9401069946289062	-0.04239479827880859	-0.04112929916381836	0.960614990234375	-0.04410290145874023	-0.039223098754882814	0.979551025390625	-0.04476440048217773	-0.03505419921875	1.006969970703125	-0.05404439926147461	-0.034560001373291016	1.073449951171875
14	0.4666666666666667	-0.0135846004486084	-0.05699029922485352	0.9969619750976563	-0.008348540306091308	-0.07426439666748047	1.0135999755859375	-0.019709100723266603	-0.08175170135498047	1.0406600341796874	-0.03475949859619141	-0.05850559997558594	1.0551400146484375	-0.038934398651123046	-0.09641220092773438	0.9318510131835938	-0.04642599868774414	-0.09434729766845704	0.952947021484375	-0.055280899047851564	-0.09094889831542968	0.974969970703125	-0.06427130126953125	-0.08405950164794922	1.0103200073242187	-0.020545000076293944	-0.06388190078735352	1.0330699462890625	-0.02092110061645508	-0.06786409759521485	1.0142999877929688	-0.02990920066833496	-0.07319300079345703	0.9902570190429687	-0.0687738037109375	-0.06531900024414063	1.0037100219726562	-0.010708499908447265	-0.05315399932861328	1.0311099853515624	-0.01752400016784668	-0.05403139877319336	1.012030029296875	-0.02689539909362793	-0.055725101470947266	0.9873070068359375	-0.0631332015991211	-0.04695349884033203	1.0029199829101563	-0.041032798767089845	-0.04359389877319336	0.940302001953125	-0.042194801330566405	-0.04091510009765625	0.9607520141601562	-0.04403030014038086	-0.03905690002441406	0.97977099609375	-0.04489839935302734	-0.03489970016479492	1.0072999877929687	-0.05402140045166016	-0.034464900970458984	1.07356005859375
15	0.5	-0.013384400367736816	-0.05687670135498047	0.997114013671875	-0.00812185001373291	-0.07394010162353516	1.01347998046875	-0.019605800628662108	-0.08157839965820313	1.0408199462890626	-0.03469449996948242	-0.05838330078125	1.0553699951171875	-0.03838249969482422	-0.0960927963256836	0.9320230102539062	-0.04598509979248047	-0.09403230285644532	0.953156005859375	-0.05493170166015625	-0.09069930267333984	0.9750239868164062	-0.06416130065917969	-0.08387689971923828	1.0103200073242187	-0.02009029960632324	-0.06334820175170898	1.0339000244140626	-0.020861799240112305	-0.06763500213623047	1.014510009765625	-0.029722900390625	-0.07306809997558594	0.9904359741210937	-0.06869210052490235	-0.06514749908447266	1.0036199951171876	-0.010878999710083008	-0.0528931999206543	1.0314100341796875	-0.017489599227905273	-0.053743099212646486	1.0120499877929687	-0.026737499237060546	-0.05551900100708008	0.9875900268554687	-0.06288109970092773	-0.04674449920654297	1.0031599731445313	-0.04066469955444336	-0.0432781982421875	0.9405020141601562	-0.04195819854736328	-0.04064009857177735	0.9609089965820312	-0.043863800048828124	-0.03880519866943359	0.9799390258789062	-0.044796798706054686	-0.03466370010375976	1.0074400024414063	-0.0539025993347168	-0.034297100067138674	1.07352001953125
16	0.5333333333333333	-0.013234100341796874	-0.056585498809814457	0.9974840087890625	-0.00799931001663208	-0.07381510162353516	1.0138099975585937	-0.019450599670410157	-0.08137529754638671	1.04118994140625	-0.034637500762939456	-0.05803799819946289	1.05577001953125	-0.03798040008544922	-0.09588729858398437	0.9322940063476562	-0.045616798400878907	-0.09384709930419922	0.9533930053710937	-0.054591499328613284	-0.0905167007446289	0.9752960205078125	-0.06404080200195313	-0.08375070190429687	1.0106699829101562	-0.01963240051269531	-0.06286190032958984	1.034260009765625	-0.020764999389648438	-0.06730850219726563	1.01522998046875	-0.02951639938354492	-0.07290470123291015	0.9907849731445313	-0.06839040374755859	-0.06498989868164062	1.00397998046875	-0.010475399971008301	-0.05281240081787109	1.0313299560546876	-0.017351999282836914	-0.053475601196289066	1.01247998046875	-0.026457000732421875	-0.05532229995727539	0.9879000244140625	-0.06279079818725586	-0.046586799621582034	1.00322998046875	-0.04016500091552734	-0.04284780120849609	0.9406389770507813	-0.04158470153808594	-0.04029729843139648	0.961052001953125	-0.04357839965820313	-0.03857220077514648	0.9800659790039062	-0.0446083984375	-0.034508201599121095	1.00747998046875	-0.053956901550292966	-0.03406169891357422	1.0739599609375
